PathFileType	4	(X/Y/Z)	/Users/niels/Desktop/University/Third Semester/Perception and Action/Exam/Gymnastics Motion Tracking/Code for Gym Tracking/Scripts/Analyzed Data/Start Salto/st_salto_good_id17_1_Sports2D/st_salto_good_id17_1_Sports2D_px_person00.trc
DataRate	CameraRate	NumFrames	NumMarkers	Units	OrigDataRate	OrigDataStartFrame	OrigNumFrames
29.75	29.75	9	22	m	29.75	90	120
Frame#	Time	Hip			RHip			RKnee			RAnkle			RBigToe			RSmallToe			RHeel			LHip			LKnee			LAnkle			LBigToe			LSmallToe			LHeel			Neck			Head			Nose			RShoulder			RElbow			RWrist			LShoulder			LElbow			LWrist		
		X1	Y1	Z1	X2	Y2	Z2	X3	Y3	Z3	X4	Y4	Z4	X5	Y5	Z5	X6	Y6	Z6	X7	Y7	Z7	X8	Y8	Z8	X9	Y9	Z9	X10	Y10	Z10	X11	Y11	Z11	X12	Y12	Z12	X13	Y13	Z13	X14	Y14	Z14	X15	Y15	Z15	X16	Y16	Z16	X17	Y17	Z17	X18	Y18	Z18	X19	Y19	Z19	X20	Y20	Z20	X21	Y21	Z21	X22	Y22	Z22
90	3.0252100840336134	1.3941865066690904	-0.3908367989075412	0.0	1.399971359733234	-0.39688684001991553	0.0	1.4751894017097213	-0.3113045238526555	0.0	1.5949857506059355	-0.36560342536504703	0.0	1.636992523560419	-0.2706518494721901	0.0	1.6378659038052708	-0.285552939931608	0.0	1.6215337399414684	-0.32174643831776717	0.0	1.4001446608177417	-0.4000376698601692	0.0	1.491213040816008	-0.3514169771893088	0.0	1.615660503121925	-0.4077007409098555	0.0	1.6567779422578308	-0.31700002780325437	0.0	1.6591521371075946	-0.3301951843944471	0.0	1.639202349438469	-0.38048023511570556	0.0	1.2292147873946138	-0.3603796494042053	0.0	1.1628615801381423	-0.3054800656916761	0.0	1.2111174786472467	-0.31729310674716305	0.0	1.2375945490454652	-0.3700799641352359	0.0	1.2281768453337794	-0.30666559564318413	0.0	1.197838375339349	-0.23031794711405246	0.0	1.2366931174441689	-0.36453125301138156	0.0	1.2257520189124453	-0.2959185299357503	0.0	1.1924741521038635	-0.2342965113709665	0.0
91	3.0588235294117645	1.4028003611965236	-0.3937848216203332	0.0	1.4084880539447688	-0.40011804001425755	0.0	1.4930348767580348	-0.32841136257789555	0.0	1.611143607819083	-0.3968532501560285	0.0	1.6587097002496927	-0.30060791872098447	0.0	1.6585549640865973	-0.3172080772648829	0.0	1.636081221321229	-0.3520399314789293	0.0	1.4094475612577881	-0.40360585727001574	0.0	1.5007344563792238	-0.36526555158812024	0.0	1.6224811187841923	-0.42621506910463003	0.0	1.6635831114642774	-0.32019724943985006	0.0	1.6644556560657324	-0.3332425562774379	0.0	1.6452153926486324	-0.4026188836354467	0.0	1.2410141860930446	-0.3582580360103671	0.0	1.178487355893803	-0.3025283034497603	0.0	1.2230947275144162	-0.3152541102959948	0.0	1.248520120642479	-0.3663416833199076	0.0	1.2381011603489962	-0.3061783308815962	0.0	1.2081389372177955	-0.23213669576579468	0.0	1.2473944693114045	-0.36168922893266886	0.0	1.2321851104862502	-0.2930130061622777	0.0	1.201457235298432	-0.23341619841531716	0.0
92	3.0924369747899156	1.411537387829701	-0.3981590361875037	0.0	1.4169094451836142	-0.40378873257733056	0.0	1.5088416210696687	-0.3439089547679772	0.0	1.6236166776775542	-0.41669549048634563	0.0	1.6754124133778747	-0.32545439563482803	0.0	1.6747908789591657	-0.3429550450961092	0.0	1.646489306349791	-0.37785042999006324	0.0	1.418703192889819	-0.4077095282724058	0.0	1.5120502169930157	-0.38144803744424294	0.0	1.6303565133903395	-0.4329593932066457	0.0	1.6730415839334474	-0.3266043789239287	0.0	1.6720727252196874	-0.3385826374528621	0.0	1.6518272312448932	-0.428025424351782	0.0	1.25314557364118	-0.3564285962475689	0.0	1.1952428109781683	-0.30027618762119984	0.0	1.2370351755595574	-0.31319082187558767	0.0	1.259400199131964	-0.3630062655008546	0.0	1.2492831151057173	-0.3055047540075652	0.0	1.2198306481114332	-0.23311026368538987	0.0	1.2578967457784798	-0.35928894338870626	0.0	1.2380185507176356	-0.2910827585669898	0.0	1.210122069481916	-0.23300629121519326	0.0
93	3.1260504201680672	1.4209272019704777	-0.4040866769134269	0.0	1.4260248123914792	-0.40864486415997814	0.0	1.5233258024993386	-0.35857791343025275	0.0	1.6338809819830973	-0.42500519690934363	0.0	1.6889265257660888	-0.3459577006643654	0.0	1.688322232557459	-0.3634640597591322	0.0	1.6546996831477188	-0.39930138100822865	0.0	1.4283901660943823	-0.4125396379514363	0.0	1.524302583504217	-0.397842598740494	0.0	1.6386649957993498	-0.42791689905859676	0.0	1.68412579030033	-0.3363533426464277	0.0	1.6812305840281476	-0.34672600847314244	0.0	1.6586717224749974	-0.45401414140747837	0.0	1.2657219786449925	-0.3548454223806779	0.0	1.2128367303811896	-0.29875030134091524	0.0	1.253162263382945	-0.31131361498129445	0.0	1.270584460843645	-0.3606133602424551	0.0	1.2619102684987717	-0.304357393514157	0.0	1.2327382919996155	-0.23281430957305776	0.0	1.2686704300780431	-0.35711745650752164	0.0	1.2442240544221768	-0.29004288159474084	0.0	1.2186962751265449	-0.2334379040172791	0.0
94	3.1596638655462184	1.431196753796282	-0.41138261286293315	0.0	1.436346542489734	-0.4146573624823513	0.0	1.537185744895624	-0.37271083438092134	0.0	1.6434959405038552	-0.42514533960132483	0.0	1.7009310255471428	-0.3620155060627523	0.0	1.7007620689203626	-0.3786717033506011	0.0	1.662318155923808	-0.4159730535081592	0.0	1.4386424128866862	-0.4185448803080712	0.0	1.5365109739842209	-0.4141778083888561	0.0	1.6462299426041247	-0.41997548445870614	0.0	1.6951779334271992	-0.35029720270515413	0.0	1.6904005388756058	-0.3589856027749223	0.0	1.6646476565992854	-0.4802669497594881	0.0	1.2790731318224837	-0.3533273137705335	0.0	1.231259007365118	-0.29794669091936365	0.0	1.271128640117254	-0.3097447530711604	0.0	1.28266660355485	-0.3591197969719122	0.0	1.2759784422893665	-0.30260743296887765	0.0	1.2467793101413867	-0.23137879353135463	0.0	1.2801842061081092	-0.35511789235792746	0.0	1.2515561656157317	-0.2897909093478395	0.0	1.2276571150520073	-0.23521854906593678	0.0
95	3.1932773109243695	1.441992736663475	-0.4195282509716909	0.0	1.447676435806081	-0.42108109647529357	0.0	1.5507671763033188	-0.38547747916674746	0.0	1.6534484829293241	-0.42171337269010145	0.0	1.7123737283830176	-0.37280382215694113	0.0	1.7128937727684843	-0.38794666154800306	0.0	1.6702700269005255	-0.4269626635235209	0.0	1.4489959858804549	-0.42599887563436417	0.0	1.5478758879248533	-0.43121258310160443	0.0	1.6516791867252993	-0.42235999812940683	0.0	1.7038747999247477	-0.37443529220566835	0.0	1.697453532565888	-0.3815683470607231	0.0	1.6682958609445113	-0.5078072084172691	0.0	1.293296627794848	-0.3517423609575399	0.0	1.2503786250047422	-0.2977353263654841	0.0	1.289980622461088	-0.3085601724613803	0.0	1.2959898828453535	-0.3579985208722042	0.0	1.2910929555831856	-0.30015086215265807	0.0	1.2618087825383995	-0.22918855167693897	0.0	1.2923830833511836	-0.35352402718847364	0.0	1.2602842698598373	-0.29030505428777786	0.0	1.2373554339126251	-0.23875276736429726	0.0
96	3.226890756302521	1.4525318981998907	-0.42785954142213517	0.0	1.4591731524183902	-0.42719120640864267	0.0	1.5642867359215953	-0.39638078389037806	0.0	1.6642632424967996	-0.42017497829802325	0.0	1.723850785253917	-0.38162147229223464	0.0	1.725066637412036	-0.39492632066522443	0.0	1.6790934494437226	-0.4348615911011076	0.0	1.4586590954688148	-0.4345403938858526	0.0	1.5578242835127691	-0.44901557892155297	0.0	1.6539981330054623	-0.4444188195894656	0.0	1.7077112756861712	-0.41599542255805894	0.0	1.7001332021743214	-0.4217628938221359	0.0	1.6684652706494785	-0.5365419552919078	0.0	1.3080474372685282	-0.3499695521501688	0.0	1.2697933952081308	-0.29750412545732446	0.0	1.308660028624465	-0.3076283622971795	0.0	1.310414708066367	-0.35660639333481586	0.0	1.3065339757806107	-0.2969043290488819	0.0	1.2774659665745545	-0.2264371182602199	0.0	1.304729861684819	-0.3525159574230084	0.0	1.2702202683244748	-0.2914052565304406	0.0	1.2477917823306797	-0.24384595001751974	0.0
97	3.2605042016806722	1.4620910421430617	-0.43581568691766515	0.0	1.4699105493551177	-0.43261613710304464	0.0	1.5779947871899382	-0.404201663711587	0.0	1.6762767418201263	-0.42484883297963255	0.0	1.7357287330499627	-0.3937300998310422	0.0	1.73751857661153	-0.4051656131240091	0.0	1.6893276708942973	-0.4441073819791889	0.0	1.4669350588246177	-0.4434894080374292	0.0	1.5660095330489616	-0.4683962969384759	0.0	1.6528032324930422	-0.48629422918851456	0.0	1.705212733334967	-0.4754894675651171	0.0	1.6971622282995207	-0.48022970141536786	0.0	1.664733215547885	-0.5670308770180594	0.0	1.3227531600791236	-0.3478531288210486	0.0	1.28889199576524	-0.29614422182440536	0.0	1.326393118188286	-0.30643836000213287	0.0	1.3255364513600278	-0.3545294076484695	0.0	1.3216757245991175	-0.2929705542202822	0.0	1.2933403820352638	-0.22306290602297107	0.0	1.3166311045169061	-0.3520144082065424	0.0	1.2808667380938865	-0.2926359114473755	0.0	1.258631177420515	-0.24941927068647934	0.0
98	3.2941176470588234	1.4704712766460128	-0.44308825610255353	0.0	1.479455240069388	-0.43738766812707386	0.0	1.5919219217851384	-0.40807257769034166	0.0	1.6892253061170022	-0.4364804665365647	0.0	1.7477877562110067	-0.4112135159665887	0.0	1.7500470622442819	-0.42096968050376493	0.0	1.700953477001413	-0.4569948030156839	0.0	1.4736352131027985	-0.45221951379124226	0.0	1.5724220656582515	-0.49027329313468787	0.0	1.6486965425924627	-0.5392169866831734	0.0	1.697486056316163	-0.544017523535595	0.0	1.6896912507530744	-0.5480918732233808	0.0	1.6578483264492319	-0.599894004517141	0.0	1.33707658928108	-0.34540731062832314	0.0	1.3070981326809177	-0.29274336914258364	0.0	1.342935871077629	-0.30446457977744584	0.0	1.3410271842444972	-0.35189514944522693	0.0	1.336443244028918	-0.2887770352836133	0.0	1.3093328776316828	-0.2190558145410634	0.0	1.3279737348981355	-0.35174678800544396	0.0	1.291820228993133	-0.2934347079193931	0.0	1.2695908887113385	-0.2537806990499525	0.0
